<svg aria-hidden="true" style="position: absolute; width: 0; height: 0; overflow: hidden;" version="1.1" xmlns="http://www.w3.org/2000/svg" xmlns:xlink="http://www.w3.org/1999/xlink">
<defs>
<symbol id="icon-check" viewBox="0 0 32 32">
<path fill="#669180" style="fill: var(--color1, #669180)" d="M16 29.333c7.364 0 13.333-5.969 13.333-13.333s-5.969-13.333-13.333-13.333c-7.364 0-13.333 5.97-13.333 13.333s5.97 13.333 13.333 13.333zM16 32c-8.837 0-16-7.164-16-16s7.163-16 16-16c8.836 0 16 7.163 16 16s-7.164 16-16 16zM14.089 19.522l-5.147-5.144-1.885 1.886 7.034 7.030 11.305-11.33-1.888-1.884-9.42 9.441z"></path>
</symbol>
<symbol id="icon-bells" viewBox="0 0 32 32">
<path fill="none" stroke="#333461" style="stroke: var(--color2, #333461)" stroke-linejoin="round" stroke-linecap="round" stroke-miterlimit="4" stroke-width="2.9091" d="M13.334 6.667c0-0.707 0.281-1.385 0.781-1.886s1.178-0.781 1.886-0.781c0.707 0 1.386 0.281 1.886 0.781s0.781 1.178 0.781 1.886c1.531 0.724 2.837 1.851 3.776 3.26s1.478 3.048 1.557 4.74v4c0.1 0.829 0.394 1.623 0.857 2.318s1.083 1.271 1.81 1.682h-21.333c0.727-0.411 1.346-0.988 1.81-1.682s0.757-1.489 0.857-2.318v-4c0.079-1.692 0.618-3.33 1.557-4.74s2.245-2.536 3.776-3.26"></path>
<path fill="none" stroke="#333461" style="stroke: var(--color2, #333461)" stroke-linejoin="round" stroke-linecap="round" stroke-miterlimit="4" stroke-width="2.9091" d="M12 22.667v1.333c0 1.061 0.421 2.078 1.172 2.828s1.768 1.172 2.828 1.172 2.078-0.421 2.828-1.172c0.75-0.75 1.172-1.768 1.172-2.828v-1.333"></path>
<path fill="none" stroke="#20ad96" style="stroke: var(--color3, #20ad96)" stroke-linejoin="round" stroke-linecap="round" stroke-miterlimit="4" stroke-width="2.9091" d="M27.999 8.969c-0.874-1.902-2.144-3.596-3.725-4.969"></path>
<path fill="none" stroke="#20ad96" style="stroke: var(--color3, #20ad96)" stroke-linejoin="round" stroke-linecap="round" stroke-miterlimit="4" stroke-width="2.9091" d="M4 8.969c0.874-1.902 2.143-3.596 3.723-4.969"></path>
</symbol>
<symbol id="icon-book" viewBox="0 0 32 32">
<path fill="none" stroke="#3f3a64" style="stroke: var(--color4, #3f3a64)" stroke-linejoin="round" stroke-linecap="round" stroke-miterlimit="4" stroke-width="1.2222" d="M12 5.333v24M8 5.333h14.667c0.707 0 1.386 0.281 1.886 0.781s0.781 1.178 0.781 1.886v16c0 0.707-0.281 1.386-0.781 1.886s-1.178 0.781-1.886 0.781h-14.667c-0.354 0-0.693-0.14-0.943-0.391s-0.391-0.589-0.391-0.943v-18.667c0-0.354 0.141-0.693 0.391-0.943s0.589-0.391 0.943-0.391v0z"></path>
<path fill="none" stroke="#20ad96" style="stroke: var(--color3, #20ad96)" stroke-linejoin="round" stroke-linecap="round" stroke-miterlimit="4" stroke-width="1.2222" d="M17.333 10.667h2.667"></path>
<path fill="none" stroke="#20ad96" style="stroke: var(--color3, #20ad96)" stroke-linejoin="round" stroke-linecap="round" stroke-miterlimit="4" stroke-width="1.2222" d="M17.333 16h2.667"></path>
</symbol>
<symbol id="icon-calendar" viewBox="0 0 32 32">
<path fill="none" stroke="#3f3a64" style="stroke: var(--color4, #3f3a64)" stroke-linejoin="round" stroke-linecap="round" stroke-miterlimit="4" stroke-width="2.9091" d="M24 6.667h-16c-1.473 0-2.667 1.194-2.667 2.667v16c0 1.473 1.194 2.667 2.667 2.667h16c1.473 0 2.667-1.194 2.667-2.667v-16c0-1.473-1.194-2.667-2.667-2.667z"></path>
<path fill="none" stroke="#3f3a64" style="stroke: var(--color4, #3f3a64)" stroke-linejoin="round" stroke-linecap="round" stroke-miterlimit="4" stroke-width="2.9091" d="M21.334 4v5.333"></path>
<path fill="none" stroke="#3f3a64" style="stroke: var(--color4, #3f3a64)" stroke-linejoin="round" stroke-linecap="round" stroke-miterlimit="4" stroke-width="2.9091" d="M10.666 4v5.333"></path>
<path fill="none" stroke="#3f3a64" style="stroke: var(--color4, #3f3a64)" stroke-linejoin="round" stroke-linecap="round" stroke-miterlimit="4" stroke-width="2.9091" d="M5.334 14.667h21.333"></path>
<path fill="none" stroke="#20ad96" style="stroke: var(--color3, #20ad96)" stroke-linejoin="round" stroke-linecap="round" stroke-miterlimit="4" stroke-width="1.4545" d="M13.333 20h-2.667v2.667h2.667v-2.667z"></path>
</symbol>
<symbol id="icon-company-1" viewBox="0 0 97 32">
<path fill="#98a2b3" style="fill: var(--color5, #98a2b3)" d="M8.852 14.879c0.548-2.046 2.651-4.148 4.696-4.696l12.753-3.418c2.046-0.548 3.259 0.666 2.711 2.711l-3.418 12.753c-0.548 2.046-2.651 4.148-4.696 4.696l-12.753 3.418c-2.046 0.548-3.259-0.666-2.711-2.711l3.418-12.753z"></path>
<path fill="#667085" style="fill: var(--color6, #667085)" d="M3.739 9.766c0.548-2.045 2.651-4.148 4.696-4.696l12.753-3.418c2.046-0.548 3.259 0.666 2.711 2.711l-3.418 12.753c-0.548 2.045-2.651 4.148-4.696 4.696l-12.753 3.418c-2.046 0.548-3.259-0.666-2.711-2.711l3.418-12.753z"></path>
<path fill="#475467" style="fill: var(--color7, #475467)" d="M40.861 20.949h4.387v1.717h-6.515v-12.973h2.128v11.256z"></path>
<path fill="#475467" style="fill: var(--color7, #475467)" d="M46.318 17.477c0-1.033 0.212-1.948 0.635-2.744 0.436-0.796 1.020-1.412 1.755-1.848 0.747-0.448 1.568-0.672 2.464-0.672 0.809 0 1.512 0.162 2.109 0.485 0.61 0.311 1.095 0.703 1.456 1.176v-1.493h2.147v10.285h-2.147v-1.531c-0.361 0.485-0.852 0.89-1.475 1.213s-1.332 0.485-2.128 0.485c-0.884 0-1.692-0.224-2.427-0.672-0.734-0.46-1.319-1.095-1.755-1.904-0.423-0.821-0.635-1.748-0.635-2.781zM54.737 17.515c0-0.709-0.149-1.325-0.448-1.848-0.286-0.523-0.666-0.921-1.139-1.195s-0.983-0.411-1.531-0.411-1.058 0.137-1.531 0.411c-0.473 0.261-0.859 0.653-1.157 1.176-0.286 0.51-0.429 1.12-0.429 1.829s0.143 1.332 0.429 1.867c0.299 0.535 0.684 0.946 1.157 1.232 0.485 0.274 0.996 0.411 1.531 0.411 0.548 0 1.058-0.137 1.531-0.411s0.852-0.672 1.139-1.195c0.299-0.535 0.448-1.157 0.448-1.867z"></path>
<path fill="#475467" style="fill: var(--color7, #475467)" d="M68.937 12.381l-6.309 15.12h-2.203l2.091-5.003-4.051-10.117h2.371l2.893 7.84 3.005-7.84h2.203z"></path>
<path fill="#475467" style="fill: var(--color7, #475467)" d="M79.97 17.272c0 0.386-0.025 0.734-0.075 1.045h-7.859c0.062 0.821 0.367 1.481 0.915 1.979s1.219 0.747 2.016 0.747c1.145 0 1.954-0.479 2.427-1.437h2.296c-0.311 0.946-0.877 1.724-1.699 2.333-0.809 0.597-1.817 0.896-3.024 0.896-0.983 0-1.867-0.218-2.651-0.653-0.771-0.448-1.381-1.070-1.829-1.867-0.435-0.809-0.653-1.742-0.653-2.8s0.211-1.985 0.635-2.781c0.435-0.809 1.039-1.431 1.811-1.867 0.784-0.436 1.68-0.653 2.688-0.653 0.971 0 1.835 0.212 2.595 0.635s1.35 1.020 1.773 1.792c0.423 0.759 0.635 1.636 0.635 2.632zM77.749 16.6c-0.013-0.784-0.293-1.412-0.84-1.885s-1.226-0.709-2.035-0.709c-0.734 0-1.363 0.236-1.885 0.709-0.523 0.46-0.834 1.089-0.933 1.885h5.693z"></path>
<path fill="#475467" style="fill: var(--color7, #475467)" d="M84.192 13.875c0.311-0.523 0.722-0.927 1.232-1.213 0.523-0.299 1.139-0.448 1.848-0.448v2.203h-0.541c-0.833 0-1.468 0.212-1.904 0.635-0.423 0.423-0.635 1.157-0.635 2.203v5.413h-2.128v-10.285h2.128v1.493z"></path>
<path fill="#475467" style="fill: var(--color7, #475467)" d="M92.961 22.835c-0.809 0-1.537-0.143-2.184-0.429-0.635-0.299-1.139-0.697-1.512-1.195-0.373-0.51-0.572-1.076-0.597-1.699h2.203c0.037 0.436 0.243 0.803 0.616 1.101 0.386 0.286 0.865 0.429 1.437 0.429 0.597 0 1.058-0.112 1.381-0.336 0.336-0.236 0.504-0.535 0.504-0.896 0-0.386-0.187-0.672-0.56-0.859-0.361-0.187-0.939-0.392-1.736-0.616-0.771-0.212-1.4-0.417-1.885-0.616s-0.908-0.504-1.269-0.915c-0.348-0.411-0.523-0.952-0.523-1.624 0-0.548 0.162-1.045 0.485-1.493 0.324-0.46 0.784-0.821 1.381-1.083 0.61-0.261 1.307-0.392 2.091-0.392 1.17 0 2.109 0.299 2.819 0.896 0.722 0.585 1.108 1.388 1.157 2.408h-2.128c-0.037-0.46-0.224-0.828-0.56-1.101s-0.79-0.411-1.363-0.411c-0.56 0-0.989 0.106-1.288 0.317s-0.448 0.492-0.448 0.84c0 0.274 0.1 0.504 0.299 0.691s0.442 0.336 0.728 0.448c0.287 0.1 0.709 0.23 1.269 0.392 0.747 0.199 1.357 0.404 1.829 0.616 0.485 0.199 0.903 0.498 1.251 0.896s0.529 0.927 0.541 1.587c0 0.585-0.161 1.108-0.485 1.568s-0.784 0.821-1.381 1.083c-0.585 0.261-1.275 0.392-2.072 0.392z"></path>
</symbol>
<symbol id="icon-company-2" viewBox="0 0 113 32">
<path fill="#667085" style="fill: var(--color6, #667085)" d="M0.5 12.8h6.4v6.4h-6.4v-6.4z"></path>
<path fill="#667085" style="fill: var(--color6, #667085)" d="M19.7 19.2h-6.4v-6.4h6.4v6.4z"></path>
<path fill="#d0d5dd" style="fill: var(--color8, #d0d5dd)" d="M6.9 12.8l6.4-6.4v6.4l-6.4 6.4v-6.4z"></path>
<path fill="#98a2b3" style="fill: var(--color5, #98a2b3)" d="M13.3 19.2l-6.4 6.4v-6.4l6.4-6.4v6.4z"></path>
<path fill="#667085" style="fill: var(--color6, #667085)" d="M0.5 12.8l12.8-12.8v6.4l-6.4 6.4h-6.4z"></path>
<path fill="#667085" style="fill: var(--color6, #667085)" d="M19.7 19.2l-12.8 12.8v-6.4l6.4-6.4h6.4z"></path>
<path fill="#475467" style="fill: var(--color7, #475467)" d="M33.639 22.853c-1.008 0-1.985-0.143-2.931-0.429-0.933-0.286-1.674-0.666-2.221-1.139l0.84-1.885c0.535 0.423 1.188 0.772 1.96 1.045 0.784 0.261 1.568 0.392 2.352 0.392 0.971 0 1.692-0.156 2.165-0.467 0.485-0.311 0.728-0.722 0.728-1.232 0-0.373-0.137-0.678-0.411-0.915-0.261-0.249-0.597-0.442-1.008-0.579s-0.971-0.292-1.68-0.467c-0.996-0.236-1.804-0.473-2.427-0.709-0.61-0.236-1.139-0.604-1.587-1.101-0.436-0.51-0.653-1.195-0.653-2.053 0-0.722 0.193-1.375 0.579-1.96 0.398-0.597 0.989-1.070 1.773-1.419 0.796-0.348 1.767-0.523 2.912-0.523 0.796 0 1.58 0.1 2.352 0.299s1.437 0.485 1.997 0.859l-0.765 1.885c-0.572-0.336-1.17-0.591-1.792-0.765s-1.226-0.261-1.811-0.261c-0.958 0-1.674 0.162-2.147 0.485-0.46 0.324-0.691 0.753-0.691 1.288 0 0.373 0.131 0.678 0.392 0.915 0.274 0.236 0.616 0.423 1.027 0.56s0.971 0.292 1.68 0.467c0.971 0.224 1.767 0.46 2.389 0.709 0.622 0.236 1.151 0.604 1.587 1.101 0.448 0.498 0.672 1.17 0.672 2.016 0 0.722-0.199 1.375-0.597 1.96-0.386 0.585-0.977 1.052-1.773 1.4s-1.767 0.523-2.912 0.523z"></path>
<path fill="#475467" style="fill: var(--color7, #475467)" d="M41.104 12.699h2.333v9.968h-2.333v-9.968zM42.28 11.056c-0.423 0-0.778-0.131-1.064-0.392-0.286-0.274-0.429-0.61-0.429-1.008s0.143-0.728 0.429-0.989c0.286-0.274 0.641-0.411 1.064-0.411s0.778 0.131 1.064 0.392c0.286 0.249 0.429 0.566 0.429 0.952 0 0.411-0.143 0.759-0.429 1.045-0.274 0.274-0.628 0.411-1.064 0.411z"></path>
<path fill="#475467" style="fill: var(--color7, #475467)" d="M49.579 22.797c-0.809 0-1.599-0.106-2.371-0.317s-1.388-0.479-1.848-0.803l0.896-1.773c0.448 0.299 0.983 0.541 1.605 0.728 0.635 0.174 1.257 0.261 1.867 0.261 1.394 0 2.091-0.367 2.091-1.101 0-0.348-0.18-0.591-0.541-0.728-0.348-0.137-0.915-0.268-1.699-0.392-0.821-0.124-1.493-0.268-2.016-0.429-0.51-0.162-0.958-0.442-1.344-0.84-0.373-0.411-0.56-0.977-0.56-1.699 0-0.946 0.392-1.699 1.176-2.259 0.796-0.572 1.867-0.859 3.211-0.859 0.684 0 1.369 0.081 2.053 0.243 0.684 0.149 1.244 0.355 1.68 0.616l-0.896 1.773c-0.846-0.498-1.798-0.747-2.856-0.747-0.684 0-1.207 0.106-1.568 0.317-0.348 0.199-0.523 0.467-0.523 0.803 0 0.373 0.187 0.641 0.56 0.803 0.386 0.149 0.977 0.292 1.773 0.429 0.796 0.124 1.45 0.268 1.96 0.429s0.946 0.436 1.307 0.821c0.373 0.386 0.56 0.933 0.56 1.643 0 0.933-0.404 1.68-1.213 2.24s-1.91 0.84-3.304 0.84z"></path>
<path fill="#475467" style="fill: var(--color7, #475467)" d="M65.257 12.699l-4.667 10.771c-0.436 1.083-0.964 1.842-1.587 2.277-0.622 0.448-1.375 0.672-2.259 0.672-0.498 0-0.989-0.081-1.475-0.243s-0.884-0.386-1.195-0.672l0.933-1.717c0.224 0.212 0.485 0.38 0.784 0.504 0.311 0.124 0.622 0.187 0.933 0.187 0.411 0 0.747-0.106 1.008-0.317 0.274-0.212 0.523-0.566 0.747-1.064l0.168-0.392-4.349-10.005h2.427l3.136 7.373 3.155-7.373h2.24z"></path>
<path fill="#475467" style="fill: var(--color7, #475467)" d="M72.241 12.587c0.971 0 1.836 0.212 2.595 0.635 0.772 0.423 1.375 1.020 1.811 1.792s0.653 1.661 0.653 2.669-0.217 1.904-0.653 2.688c-0.435 0.772-1.039 1.369-1.811 1.792-0.759 0.423-1.624 0.635-2.595 0.635-1.344 0-2.408-0.448-3.192-1.344v4.835h-2.333v-13.589h2.221v1.307c0.386-0.473 0.859-0.828 1.419-1.064 0.573-0.236 1.201-0.355 1.885-0.355zM71.979 20.8c0.859 0 1.562-0.286 2.109-0.859 0.56-0.572 0.84-1.325 0.84-2.259s-0.28-1.686-0.84-2.259c-0.547-0.572-1.251-0.859-2.109-0.859-0.56 0-1.064 0.131-1.512 0.392-0.448 0.249-0.803 0.61-1.064 1.083s-0.392 1.020-0.392 1.643c0 0.622 0.131 1.17 0.392 1.643s0.616 0.84 1.064 1.101c0.448 0.249 0.952 0.373 1.512 0.373z"></path>
<path fill="#475467" style="fill: var(--color7, #475467)" d="M85.169 12.587c1.257 0 2.265 0.367 3.024 1.101s1.139 1.823 1.139 3.267v5.712h-2.333v-5.413c0-0.871-0.205-1.524-0.616-1.96-0.411-0.448-0.996-0.672-1.755-0.672-0.859 0-1.537 0.261-2.035 0.784-0.498 0.51-0.747 1.251-0.747 2.221v5.040h-2.333v-13.851h2.333v5.040c0.385-0.411 0.859-0.722 1.419-0.933 0.572-0.224 1.207-0.336 1.904-0.336z"></path>
<path fill="#475467" style="fill: var(--color7, #475467)" d="M101.942 12.699v9.968h-2.221v-1.269c-0.373 0.448-0.84 0.796-1.4 1.045-0.56 0.236-1.164 0.355-1.811 0.355-1.332 0-2.383-0.367-3.155-1.101-0.759-0.747-1.139-1.848-1.139-3.304v-5.693h2.333v5.376c0 0.896 0.199 1.568 0.597 2.016 0.411 0.436 0.989 0.653 1.736 0.653 0.833 0 1.493-0.255 1.979-0.765 0.497-0.523 0.747-1.269 0.747-2.24v-5.040h2.333z"></path>
<path fill="#475467" style="fill: var(--color7, #475467)" d="M108.077 22.797c-0.809 0-1.599-0.106-2.371-0.317s-1.387-0.479-1.848-0.803l0.896-1.773c0.448 0.299 0.983 0.541 1.605 0.728 0.635 0.174 1.257 0.261 1.867 0.261 1.394 0 2.091-0.367 2.091-1.101 0-0.348-0.181-0.591-0.541-0.728-0.349-0.137-0.915-0.268-1.699-0.392-0.821-0.124-1.493-0.268-2.016-0.429-0.51-0.162-0.958-0.442-1.344-0.84-0.373-0.411-0.56-0.977-0.56-1.699 0-0.946 0.392-1.699 1.176-2.259 0.797-0.572 1.867-0.859 3.211-0.859 0.685 0 1.369 0.081 2.053 0.243 0.685 0.149 1.245 0.355 1.68 0.616l-0.896 1.773c-0.846-0.498-1.798-0.747-2.856-0.747-0.685 0-1.207 0.106-1.568 0.317-0.349 0.199-0.523 0.467-0.523 0.803 0 0.373 0.187 0.641 0.56 0.803 0.386 0.149 0.977 0.292 1.773 0.429 0.797 0.124 1.45 0.268 1.96 0.429s0.946 0.436 1.307 0.821c0.373 0.386 0.56 0.933 0.56 1.643 0 0.933-0.405 1.68-1.213 2.24s-1.91 0.84-3.304 0.84z"></path>
</symbol>
<symbol id="icon-company-3" viewBox="0 0 123 32">
<path fill="#667085" style="fill: var(--color6, #667085)" d="M10.81 22.286c5.786 0 10.476-4.69 10.476-10.476 0-0.656-0.060-1.297-0.176-1.92-0.622-0.115-1.264-0.176-1.92-0.176-5.786 0-10.476 4.69-10.476 10.476 0 0.656 0.060 1.297 0.176 1.92 0.622 0.115 1.264 0.176 1.92 0.176z"></path>
<path fill="#667085" style="fill: var(--color6, #667085)" d="M8.89 22.11c-4.869-0.902-8.556-5.171-8.556-10.301 0-5.786 4.69-10.476 10.476-10.476 5.13 0 9.399 3.687 10.301 8.556-0.622-0.115-1.264-0.176-1.92-0.176-5.786 0-10.476 4.69-10.476 10.476 0 0.656 0.060 1.297 0.176 1.92z"></path>
<path fill="#98a2b3" style="fill: var(--color5, #98a2b3)" d="M10.81 22.286c5.786 0 10.476-4.69 10.476-10.476 0-0.656-0.060-1.297-0.175-1.92 4.869 0.902 8.556 5.171 8.556 10.301 0 5.786-4.69 10.476-10.476 10.476-5.13 0-9.399-3.687-10.301-8.556 0.622 0.115 1.264 0.175 1.92 0.175z"></path>
<path fill="#475467" style="fill: var(--color7, #475467)" d="M49.819 19.269c-0.373 1.207-1.027 2.109-1.96 2.707-0.933 0.585-2.022 0.877-3.267 0.877-1.22 0-2.277-0.255-3.173-0.765-0.884-0.51-1.568-1.238-2.053-2.184-0.473-0.946-0.709-2.078-0.709-3.397s0.243-2.452 0.728-3.397c0.485-0.946 1.17-1.674 2.053-2.184s1.923-0.765 3.117-0.765c1.257 0 2.333 0.268 3.229 0.803 0.908 0.523 1.531 1.319 1.867 2.389l-2.333 0.989c-0.212-0.747-0.535-1.276-0.971-1.587-0.436-0.324-0.996-0.485-1.68-0.485-1.020 0-1.836 0.367-2.445 1.101-0.597 0.722-0.896 1.767-0.896 3.136 0 1.356 0.286 2.402 0.859 3.136s1.4 1.101 2.483 1.101c0.672 0 1.251-0.18 1.736-0.541 0.498-0.361 0.846-0.908 1.045-1.643l2.371 0.709z"></path>
<path fill="#475467" style="fill: var(--color7, #475467)" d="M53.041 11.989c-1.058 0-1.587-0.454-1.587-1.363 0-0.921 0.529-1.381 1.587-1.381s1.587 0.46 1.587 1.381c0 0.908-0.529 1.363-1.587 1.363zM54.31 13.333v9.333h-2.557v-9.333h2.557z"></path>
<path fill="#475467" style="fill: var(--color7, #475467)" d="M57.021 22.667v-9.333h2.221l0.168 1.829c0.236-0.635 0.591-1.126 1.064-1.475 0.485-0.361 1.095-0.541 1.829-0.541 0.436 0 0.772 0.068 1.008 0.205l-0.299 2.147c-0.124-0.037-0.28-0.068-0.467-0.093-0.174-0.037-0.404-0.056-0.691-0.056-0.386 0-0.753 0.093-1.101 0.28-0.336 0.174-0.616 0.448-0.84 0.821-0.224 0.361-0.336 0.821-0.336 1.381v4.835h-2.557z"></path>
<path fill="#475467" style="fill: var(--color7, #475467)" d="M68.951 13.147c1.244 0 2.209 0.268 2.893 0.803 0.697 0.535 1.157 1.182 1.381 1.941l-2.389 0.859c-0.249-1.132-0.865-1.699-1.848-1.699-0.709 0-1.263 0.249-1.661 0.747-0.386 0.498-0.579 1.238-0.579 2.221 0 0.996 0.199 1.736 0.597 2.221 0.411 0.473 0.964 0.709 1.661 0.709 1.083 0 1.729-0.554 1.941-1.661l2.315 0.747c-0.212 0.834-0.685 1.512-1.419 2.035-0.722 0.523-1.661 0.784-2.819 0.784-0.971 0-1.823-0.193-2.557-0.579-0.722-0.386-1.282-0.94-1.68-1.661s-0.597-1.593-0.597-2.613c0-1.020 0.199-1.892 0.597-2.613 0.411-0.722 0.971-1.276 1.68-1.661 0.721-0.386 1.549-0.579 2.483-0.579z"></path>
<path fill="#475467" style="fill: var(--color7, #475467)" d="M79.506 13.147c0.933 0 1.761 0.193 2.483 0.579s1.282 0.94 1.68 1.661c0.411 0.722 0.616 1.593 0.616 2.613s-0.205 1.892-0.616 2.613c-0.398 0.722-0.958 1.276-1.68 1.661s-1.549 0.579-2.483 0.579c-0.945 0-1.779-0.193-2.501-0.579-0.709-0.386-1.269-0.94-1.68-1.661-0.398-0.722-0.597-1.593-0.597-2.613s0.199-1.892 0.597-2.613c0.411-0.722 0.971-1.276 1.68-1.661 0.722-0.386 1.556-0.579 2.501-0.579zM79.506 15.051c-0.697 0-1.244 0.249-1.643 0.747-0.385 0.485-0.579 1.22-0.579 2.203s0.193 1.724 0.579 2.221c0.399 0.485 0.946 0.728 1.643 0.728 0.685 0 1.22-0.243 1.605-0.728 0.399-0.498 0.597-1.238 0.597-2.221s-0.199-1.717-0.597-2.203c-0.385-0.498-0.921-0.747-1.605-0.747z"></path>
<path fill="#475467" style="fill: var(--color7, #475467)" d="M90.681 13.147c0.933 0 1.761 0.193 2.483 0.579s1.282 0.94 1.68 1.661c0.411 0.722 0.616 1.593 0.616 2.613s-0.205 1.892-0.616 2.613c-0.398 0.722-0.958 1.276-1.68 1.661s-1.549 0.579-2.483 0.579c-0.945 0-1.779-0.193-2.501-0.579-0.709-0.386-1.269-0.94-1.68-1.661-0.398-0.722-0.597-1.593-0.597-2.613s0.199-1.892 0.597-2.613c0.411-0.722 0.971-1.276 1.68-1.661 0.722-0.386 1.556-0.579 2.501-0.579zM90.681 15.051c-0.697 0-1.244 0.249-1.643 0.747-0.385 0.485-0.579 1.22-0.579 2.203s0.193 1.724 0.579 2.221c0.399 0.485 0.946 0.728 1.643 0.728 0.685 0 1.22-0.243 1.605-0.728 0.399-0.498 0.597-1.238 0.597-2.221s-0.199-1.717-0.597-2.203c-0.385-0.498-0.921-0.747-1.605-0.747z"></path>
<path fill="#475467" style="fill: var(--color7, #475467)" d="M100.119 9.245v10.547c0 0.436 0.075 0.74 0.224 0.915s0.398 0.261 0.747 0.261c0.211 0 0.386-0.012 0.523-0.037s0.311-0.075 0.523-0.149l-0.224 1.68c-0.211 0.124-0.479 0.218-0.803 0.28-0.311 0.075-0.622 0.112-0.933 0.112-0.909 0-1.574-0.218-1.997-0.653-0.411-0.448-0.616-1.157-0.616-2.128v-10.827h2.557z"></path>
<path fill="#475467" style="fill: var(--color7, #475467)" d="M107.891 22.853c-1.468 0-2.644-0.423-3.528-1.269-0.883-0.859-1.325-2.053-1.325-3.584 0-1.020 0.199-1.892 0.597-2.613s0.952-1.276 1.661-1.661c0.722-0.386 1.543-0.579 2.464-0.579 0.946 0 1.749 0.193 2.408 0.579 0.66 0.373 1.164 0.89 1.512 1.549 0.349 0.647 0.523 1.388 0.523 2.221 0 0.249-0.006 0.485-0.019 0.709s-0.031 0.423-0.056 0.597h-6.589c0.1 0.722 0.349 1.263 0.747 1.624 0.411 0.348 0.94 0.523 1.587 0.523 0.548 0 0.989-0.106 1.325-0.317s0.597-0.504 0.784-0.877l2.035 0.784c-0.299 0.734-0.821 1.307-1.568 1.717-0.747 0.398-1.599 0.597-2.557 0.597zM107.741 15.032c-1.207 0-1.935 0.666-2.184 1.997h4.2c-0.075-0.647-0.286-1.139-0.635-1.475-0.336-0.348-0.796-0.523-1.381-0.523z"></path>
<path fill="#475467" style="fill: var(--color7, #475467)" d="M118.103 22.853c-0.946 0-1.811-0.168-2.595-0.504-0.771-0.336-1.4-0.809-1.885-1.419l1.475-1.493c0.299 0.448 0.697 0.815 1.195 1.101s1.089 0.429 1.773 0.429c0.485 0 0.871-0.068 1.157-0.205 0.299-0.149 0.448-0.38 0.448-0.691 0-0.199-0.068-0.367-0.205-0.504-0.137-0.149-0.411-0.268-0.821-0.355l-1.643-0.336c-1.083-0.224-1.854-0.56-2.315-1.008-0.448-0.46-0.672-1.052-0.672-1.773 0-0.51 0.149-0.989 0.448-1.437 0.311-0.448 0.771-0.809 1.381-1.083 0.61-0.286 1.369-0.429 2.277-0.429 1.891 0 3.248 0.579 4.069 1.736l-1.531 1.493c-0.274-0.436-0.635-0.765-1.083-0.989-0.435-0.236-0.896-0.355-1.381-0.355-1.095 0-1.643 0.305-1.643 0.915 0 0.199 0.087 0.373 0.261 0.523 0.174 0.137 0.491 0.255 0.952 0.355l1.904 0.392c0.921 0.187 1.581 0.504 1.979 0.952 0.398 0.436 0.597 0.964 0.597 1.587 0 0.896-0.361 1.636-1.083 2.221-0.709 0.585-1.73 0.877-3.061 0.877z"></path>
</symbol>
<symbol id="icon-company-4" viewBox="0 0 107 32">
<path fill="#98a2b3" style="fill: var(--color5, #98a2b3)" d="M14.833 1.333c-8.1 0-14.667 6.566-14.667 14.667s6.566 14.667 14.667 14.667c7.267 0 13.3-5.286 14.464-12.222h-0.105c-1.085 4.217-4.914 7.333-9.47 7.333-5.4 0-9.778-4.378-9.778-9.778s4.378-9.778 9.778-9.778c4.556 0 8.384 3.116 9.47 7.333h0.105c-1.164-6.937-7.197-12.222-14.464-12.222z"></path>
<path fill="#667085" style="fill: var(--color6, #667085)" d="M0.167 16c0-8.1 6.566-14.667 14.667-14.667 7.267 0 13.3 5.286 14.464 12.222h-9.883c-1.085-4.217-4.914-7.333-9.47-7.333-5.4 0-9.778 4.378-9.778 9.778z"></path>
<path fill="#667085" style="fill: var(--color6, #667085)" d="M0.167 16c0 8.1 6.566 14.667 14.667 14.667 7.267 0 13.3-5.286 14.464-12.222h-9.883c-1.085 4.217-4.914 7.333-9.47 7.333-5.4 0-9.778-4.378-9.778-9.778z"></path>
<path fill="#475467" style="fill: var(--color7, #475467)" d="M50.459 13.671c-0.418-3.016-2.738-4.766-5.747-4.766-3.546 0-6.218 2.585-6.218 6.973 0 4.382 2.638 6.974 6.218 6.974 3.228 0 5.369-2.088 5.747-4.68l-2.479-0.013c-0.312 1.591-1.611 2.486-3.235 2.486-2.201 0-3.778-1.651-3.778-4.766 0-3.062 1.564-4.766 3.785-4.766 1.651 0 2.943 0.935 3.228 2.559h2.479z"></path>
<path fill="#475467" style="fill: var(--color7, #475467)" d="M55.535 22.872c1.598 0 2.552-0.749 2.99-1.604h0.080v1.399h2.307v-6.814c0-2.691-2.194-3.5-4.136-3.5-2.141 0-3.785 0.955-4.315 2.811l2.241 0.318c0.239-0.696 0.915-1.293 2.088-1.293 1.114 0 1.724 0.57 1.724 1.571v0.040c0 0.689-0.723 0.723-2.519 0.915-1.975 0.212-3.865 0.802-3.865 3.096 0 2.002 1.465 3.063 3.407 3.063zM56.158 21.109c-1.001 0-1.717-0.457-1.717-1.339 0-0.921 0.802-1.306 1.876-1.458 0.63-0.086 1.889-0.245 2.201-0.497v1.2c0 1.133-0.915 2.095-2.36 2.095z"></path>
<path fill="#475467" style="fill: var(--color7, #475467)" d="M68.409 12.485h-2.009v-2.439h-2.4v2.439h-1.445v1.856h1.445v5.661c-0.013 1.916 1.379 2.857 3.182 2.804 0.683-0.020 1.153-0.152 1.412-0.239l-0.405-1.876c-0.132 0.033-0.404 0.093-0.703 0.093-0.603 0-1.087-0.212-1.087-1.18v-5.263h2.009v-1.856z"></path>
<path fill="#475467" style="fill: var(--color7, #475467)" d="M73.345 22.872c1.597 0 2.552-0.749 2.989-1.604h0.079v1.399h2.307v-6.814c0-2.691-2.195-3.5-4.137-3.5-2.141 0-3.785 0.955-4.315 2.811l2.241 0.318c0.239-0.696 0.915-1.293 2.088-1.293 1.113 0 1.723 0.57 1.723 1.571v0.040c0 0.689-0.723 0.723-2.519 0.915-1.975 0.212-3.865 0.802-3.865 3.096 0 2.002 1.465 3.063 3.407 3.063zM73.968 21.109c-1.001 0-1.717-0.457-1.717-1.339 0-0.921 0.802-1.306 1.876-1.458 0.63-0.086 1.889-0.245 2.201-0.497v1.2c0 1.133-0.915 2.095-2.36 2.095z"></path>
<path fill="#475467" style="fill: var(--color7, #475467)" d="M83.533 9.091h-2.399v13.576h2.399v-13.576z"></path>
<path fill="#475467" style="fill: var(--color7, #475467)" d="M90.443 22.866c2.983 0 4.879-2.101 4.879-5.25 0-3.155-1.896-5.263-4.879-5.263s-4.879 2.108-4.879 5.263c0 3.149 1.896 5.25 4.879 5.25zM90.456 20.943c-1.651 0-2.459-1.472-2.459-3.334s0.809-3.354 2.459-3.354c1.624 0 2.433 1.491 2.433 3.354s-0.809 3.334-2.433 3.334z"></path>
<path fill="#475467" style="fill: var(--color7, #475467)" d="M101.786 26.697c2.751 0 4.779-1.259 4.779-3.865v-10.348h-2.367v1.684h-0.133c-0.364-0.736-1.127-1.816-2.923-1.816-2.353 0-4.203 1.843-4.203 5.19 0 3.321 1.85 4.978 4.196 4.978 1.744 0 2.559-0.935 2.93-1.684h0.119v1.929c0 1.498-0.994 2.115-2.359 2.115-1.445 0-2.082-0.683-2.373-1.279l-2.161 0.524c0.438 1.425 1.903 2.572 4.495 2.572zM101.806 20.638c-1.585 0-2.42-1.233-2.42-3.109 0-1.849 0.822-3.208 2.42-3.208 1.545 0 2.393 1.279 2.393 3.208 0 1.942-0.861 3.109-2.393 3.109z"></path>
</symbol>
<symbol id="icon-company-5" viewBox="0 0 125 32">
<path fill="#667085" style="fill: var(--color6, #667085)" d="M14.667 24.311c-4.59 0-8.311-3.721-8.311-8.311s3.721-8.311 8.311-8.311c4.59 0 8.311 3.721 8.311 8.311s-3.721 8.311-8.311 8.311zM14.667 30.667c8.1 0 14.667-6.566 14.667-14.667s-6.566-14.667-14.667-14.667c-8.1 0-14.667 6.566-14.667 14.667s6.566 14.667 14.667 14.667z"></path>
<path fill="#98a2b3" style="fill: var(--color5, #98a2b3)" d="M14.834 16.321c1.527-1.527 4.004-1.527 5.531 0l7.605 7.605c1.527 1.527 1.527 4.004 0 5.531s-4.004 1.527-5.531 0l-7.605-7.605c-1.527-1.527-1.527-4.004 0-5.531z"></path>
<path fill="#667085" style="fill: var(--color6, #667085)" d="M16.97 23.988l4.83 4.83c2.317-1.292 4.247-3.194 5.573-5.489l-4.791-4.791c-0.841 2.626-2.954 4.684-5.613 5.449z"></path>
<path fill="#475467" style="fill: var(--color7, #475467)" d="M53.013 24.067c-0.423 0.523-0.94 0.921-1.549 1.195-0.597 0.274-1.257 0.411-1.979 0.411-0.971 0-1.848-0.212-2.632-0.635-0.784-0.411-1.68-1.145-2.688-2.203-1.182-0.149-2.24-0.529-3.173-1.139-0.921-0.61-1.643-1.394-2.165-2.352-0.51-0.971-0.765-2.041-0.765-3.211 0-1.282 0.305-2.433 0.915-3.453 0.622-1.033 1.475-1.842 2.557-2.427 1.095-0.585 2.321-0.877 3.677-0.877s2.576 0.292 3.659 0.877 1.935 1.394 2.557 2.427c0.622 1.020 0.933 2.172 0.933 3.453 0 1.518-0.429 2.85-1.288 3.995-0.846 1.145-1.972 1.941-3.379 2.389 0.311 0.324 0.61 0.554 0.896 0.691 0.299 0.149 0.616 0.224 0.952 0.224 0.809 0 1.518-0.324 2.128-0.971l1.344 1.605zM41.123 16.133c0 0.809 0.174 1.531 0.523 2.165 0.361 0.635 0.852 1.132 1.475 1.493 0.622 0.348 1.319 0.523 2.091 0.523s1.468-0.174 2.091-0.523c0.622-0.361 1.108-0.859 1.456-1.493 0.361-0.635 0.541-1.356 0.541-2.165s-0.18-1.531-0.541-2.165c-0.348-0.635-0.834-1.126-1.456-1.475-0.622-0.361-1.319-0.541-2.091-0.541s-1.468 0.18-2.091 0.541c-0.622 0.348-1.114 0.84-1.475 1.475-0.348 0.635-0.523 1.356-0.523 2.165z"></path>
<path fill="#475467" style="fill: var(--color7, #475467)" d="M64.545 12.624v10.043h-2.763v-1.195c-0.386 0.436-0.846 0.772-1.381 1.008-0.535 0.224-1.114 0.336-1.736 0.336-1.319 0-2.364-0.38-3.136-1.139s-1.157-1.885-1.157-3.379v-5.675h2.912v5.245c0 1.618 0.678 2.427 2.035 2.427 0.697 0 1.257-0.224 1.68-0.672 0.423-0.46 0.635-1.139 0.635-2.035v-4.965h2.912z"></path>
<path fill="#475467" style="fill: var(--color7, #475467)" d="M72.021 22.816c-1.058 0-2.010-0.218-2.856-0.653-0.834-0.448-1.487-1.064-1.96-1.848s-0.71-1.674-0.71-2.669 0.236-1.885 0.71-2.669c0.473-0.784 1.126-1.394 1.96-1.829 0.846-0.448 1.798-0.672 2.856-0.672s2.003 0.224 2.837 0.672c0.833 0.436 1.487 1.045 1.96 1.829s0.709 1.674 0.709 2.669-0.237 1.885-0.709 2.669c-0.473 0.784-1.127 1.4-1.96 1.848-0.834 0.436-1.78 0.653-2.837 0.653zM72.021 20.427c0.747 0 1.356-0.249 1.829-0.747 0.485-0.51 0.728-1.188 0.728-2.035s-0.243-1.518-0.728-2.016c-0.473-0.51-1.083-0.765-1.829-0.765s-1.363 0.255-1.848 0.765c-0.485 0.498-0.728 1.17-0.728 2.016s0.243 1.524 0.728 2.035c0.485 0.498 1.101 0.747 1.848 0.747z"></path>
<path fill="#475467" style="fill: var(--color7, #475467)" d="M85.951 22.181c-0.286 0.212-0.641 0.373-1.064 0.485-0.411 0.1-0.846 0.149-1.307 0.149-1.195 0-2.121-0.305-2.781-0.915-0.647-0.61-0.971-1.506-0.971-2.688v-4.125h-1.549v-2.24h1.549v-2.445h2.912v2.445h2.501v2.24h-2.501v4.088c0 0.423 0.106 0.753 0.317 0.989 0.224 0.224 0.535 0.336 0.933 0.336 0.461 0 0.853-0.124 1.176-0.373l0.784 2.053z"></path>
<path fill="#475467" style="fill: var(--color7, #475467)" d="M87.586 12.624h2.912v10.043h-2.912v-10.043zM89.042 11.224c-0.535 0-0.971-0.156-1.307-0.467s-0.504-0.697-0.504-1.157c0-0.46 0.168-0.846 0.504-1.157s0.772-0.467 1.307-0.467c0.535 0 0.971 0.149 1.307 0.448s0.504 0.672 0.504 1.12c0 0.485-0.168 0.89-0.504 1.213-0.336 0.311-0.771 0.467-1.307 0.467z"></path>
<path fill="#475467" style="fill: var(--color7, #475467)" d="M103.038 17.683c0 0.037-0.019 0.299-0.056 0.784h-7.597c0.137 0.622 0.461 1.114 0.971 1.475s1.145 0.541 1.904 0.541c0.523 0 0.983-0.075 1.381-0.224 0.411-0.162 0.791-0.411 1.139-0.747l1.549 1.68c-0.945 1.083-2.327 1.624-4.144 1.624-1.132 0-2.134-0.218-3.005-0.653-0.871-0.448-1.543-1.064-2.016-1.848s-0.709-1.674-0.709-2.669c0-0.983 0.231-1.867 0.691-2.651 0.473-0.796 1.114-1.412 1.923-1.848 0.821-0.448 1.736-0.672 2.744-0.672 0.983 0 1.873 0.212 2.669 0.635s1.419 1.033 1.867 1.829c0.461 0.784 0.691 1.699 0.691 2.744zM97.83 14.677c-0.659 0-1.213 0.187-1.661 0.56s-0.721 0.884-0.821 1.531h4.947c-0.099-0.635-0.373-1.139-0.821-1.512-0.448-0.386-0.995-0.579-1.643-0.579z"></path>
<path fill="#475467" style="fill: var(--color7, #475467)" d="M111.081 12.475c1.245 0 2.247 0.373 3.005 1.12 0.772 0.747 1.157 1.854 1.157 3.323v5.749h-2.912v-5.301c0-0.796-0.174-1.388-0.523-1.773-0.348-0.398-0.852-0.597-1.512-0.597-0.734 0-1.319 0.23-1.755 0.691-0.435 0.448-0.653 1.12-0.653 2.016v4.965h-2.912v-10.043h2.781v1.176c0.386-0.423 0.865-0.747 1.437-0.971 0.573-0.236 1.201-0.355 1.885-0.355z"></path>
<path fill="#475467" style="fill: var(--color7, #475467)" d="M124.361 22.181c-0.287 0.212-0.641 0.373-1.064 0.485-0.411 0.1-0.847 0.149-1.307 0.149-1.195 0-2.122-0.305-2.781-0.915-0.647-0.61-0.971-1.506-0.971-2.688v-4.125h-1.549v-2.24h1.549v-2.445h2.912v2.445h2.501v2.24h-2.501v4.088c0 0.423 0.105 0.753 0.317 0.989 0.224 0.224 0.535 0.336 0.933 0.336 0.46 0 0.852-0.124 1.176-0.373l0.784 2.053z"></path>
</symbol>
<symbol id="icon-couple" viewBox="0 0 32 32">
<path fill="none" stroke="#20ad96" style="stroke: var(--color3, #20ad96)" stroke-linejoin="round" stroke-linecap="round" stroke-miterlimit="4" stroke-width="1.2222" d="M9.333 9.333c1.473 0 2.667-1.194 2.667-2.667s-1.194-2.667-2.667-2.667c-1.473 0-2.667 1.194-2.667 2.667s1.194 2.667 2.667 2.667z"></path>
<path fill="none" stroke="#20ad96" style="stroke: var(--color3, #20ad96)" stroke-linejoin="round" stroke-linecap="round" stroke-miterlimit="4" stroke-width="1.2222" d="M6.667 29.333v-6.667l-1.333-1.333v-5.333c0-0.354 0.141-0.693 0.391-0.943s0.589-0.391 0.943-0.391h5.333c0.354 0 0.693 0.14 0.943 0.391s0.391 0.589 0.391 0.943v5.333l-1.333 1.333v6.667"></path>
<path fill="none" stroke="#3f3a64" style="stroke: var(--color4, #3f3a64)" stroke-linejoin="round" stroke-linecap="round" stroke-miterlimit="4" stroke-width="1.2222" d="M22.667 9.333c1.473 0 2.667-1.194 2.667-2.667s-1.194-2.667-2.667-2.667c-1.473 0-2.667 1.194-2.667 2.667s1.194 2.667 2.667 2.667z"></path>
<path fill="none" stroke="#3f3a64" style="stroke: var(--color4, #3f3a64)" stroke-linejoin="round" stroke-linecap="round" stroke-miterlimit="4" stroke-width="1.2222" d="M20 29.333v-5.333h-2.667l2.667-8c0-0.354 0.14-0.693 0.391-0.943s0.589-0.391 0.943-0.391h2.667c0.354 0 0.693 0.14 0.943 0.391s0.391 0.589 0.391 0.943l2.667 8h-2.667v5.333"></path>
</symbol>
<symbol id="icon-cross" viewBox="0 0 27 32">
<path fill="#eb4646" style="fill: var(--color9, #eb4646)" d="M13.333 27.111c6.137 0 11.111-4.975 11.111-11.111s-4.975-11.111-11.111-11.111c-6.136 0-11.111 4.975-11.111 11.111s4.975 11.111 11.111 11.111zM13.333 29.333c-7.364 0-13.333-5.97-13.333-13.333s5.97-13.333 13.333-13.333c7.364 0 13.333 5.97 13.333 13.333s-5.97 13.333-13.333 13.333z"></path>
<path fill="#eb4646" style="fill: var(--color9, #eb4646)" d="M13.333 14.815l4.148-4.148 1.185 1.185-4.148 4.148 4.148 4.148-1.185 1.185-4.148-4.148-4.148 4.148-1.185-1.185 4.148-4.148-4.148-4.148 1.185-1.185 4.148 4.148z"></path>
</symbol>
<symbol id="icon-dribbble" viewBox="0 0 32 32">
<path fill="#98a2b3" style="fill: var(--color5, #98a2b3)" d="M16 0c-8.833 0-16 7.167-16 16s7.167 16 16 16c8.816 0 16-7.167 16-16s-7.184-16-16-16zM26.568 7.375c1.909 2.325 3.054 5.293 3.089 8.503-0.451-0.087-4.963-1.007-9.51-0.434-0.104-0.226-0.191-0.469-0.295-0.711-0.278-0.659-0.59-1.336-0.902-1.978 5.032-2.048 7.323-4.998 7.618-5.38zM16 2.36c3.471 0 6.646 1.302 9.059 3.436-0.243 0.347-2.308 3.106-7.167 4.928-2.239-4.113-4.72-7.479-5.102-8 1.024-0.243 2.1-0.364 3.21-0.364zM10.187 3.644c0.364 0.486 2.794 3.87 5.067 7.896-6.386 1.701-12.026 1.666-12.633 1.666 0.885-4.234 3.748-7.757 7.566-9.562zM2.325 16.017c0-0.139 0-0.278 0-0.417 0.59 0.017 7.219 0.104 14.039-1.944 0.399 0.763 0.764 1.544 1.111 2.325-0.174 0.052-0.365 0.104-0.538 0.156-7.046 2.273-10.794 8.486-11.106 9.007-2.169-2.412-3.505-5.623-3.505-9.128zM16 29.675c-3.158 0-6.074-1.076-8.382-2.881 0.243-0.503 3.019-5.848 10.724-8.538 0.035-0.017 0.052-0.017 0.087-0.035 1.926 4.98 2.707 9.163 2.915 10.36-1.649 0.711-3.453 1.093-5.345 1.093zM23.618 27.332c-0.139-0.833-0.868-4.824-2.655-9.735 4.286-0.677 8.035 0.434 8.503 0.59-0.59 3.8-2.777 7.080-5.848 9.145z"></path>
</symbol>
<symbol id="icon-facebook" viewBox="0 0 32 32">
<path fill="#98a2b3" style="fill: var(--color5, #98a2b3)" d="M32 16c0-8.837-7.163-16-16-16s-16 7.163-16 16c0 7.986 5.851 14.605 13.5 15.806v-11.181h-4.063v-4.625h4.063v-3.525c0-4.010 2.389-6.225 6.043-6.225 1.75 0 3.582 0.313 3.582 0.313v3.938h-2.018c-1.987 0-2.607 1.233-2.607 2.5v3h4.437l-0.709 4.625h-3.728v11.181c7.649-1.2 13.5-7.82 13.5-15.806z"></path>
</symbol>
<symbol id="icon-linkedin" viewBox="0 0 32 32">
<path fill="#98a2b3" style="fill: var(--color5, #98a2b3)" d="M29.631 0h-27.269c-1.306 0-2.362 1.031-2.362 2.306v27.381c0 1.275 1.056 2.313 2.362 2.313h27.269c1.306 0 2.369-1.037 2.369-2.306v-27.387c0-1.275-1.063-2.306-2.369-2.306zM9.494 27.269h-4.75v-15.275h4.75v15.275zM7.119 9.912c-1.525 0-2.756-1.231-2.756-2.75s1.231-2.75 2.756-2.75c1.519 0 2.75 1.231 2.75 2.75 0 1.512-1.231 2.75-2.75 2.75zM27.269 27.269h-4.744v-7.425c0-1.769-0.031-4.050-2.469-4.050-2.469 0-2.844 1.931-2.844 3.925v7.55h-4.738v-15.275h4.55v2.087h0.063c0.631-1.2 2.181-2.469 4.488-2.469 4.806 0 5.694 3.163 5.694 7.275v8.381z"></path>
</symbol>
<symbol id="icon-logo" viewBox="0 0 170 32">
<path fill="#20ad96" style="fill: var(--color3, #20ad96)" d="M18.585 3.443c1.868 0 3.595 0.993 4.535 2.608l4.424 7.606c0.949 1.63 0.949 3.644 0 5.275l-4.424 7.606c-0.939 1.615-2.666 2.608-4.535 2.608h-8.915c-1.868 0-3.595-0.994-4.534-2.608l-4.424-7.606c-0.948-1.63-0.948-3.644 0-5.275l4.424-7.606c0.939-1.615 2.666-2.608 4.534-2.608h8.915z"></path>
<path fill="none" stroke="#fff" style="stroke: var(--color10, #fff)" stroke-linejoin="round" stroke-linecap="round" stroke-miterlimit="4" stroke-width="1.836" d="M8.95 22.261l2.879-2.879h6.718c0.255 0 0.499-0.101 0.679-0.281s0.281-0.424 0.281-0.679v-5.758c0-0.255-0.101-0.499-0.281-0.679s-0.424-0.281-0.679-0.281h-8.637c-0.255 0-0.499 0.101-0.679 0.281s-0.281 0.424-0.281 0.679v9.597z"></path>
<path fill="#333461" style="fill: var(--color2, #333461)" d="M41.618 22.261h-2.687v-13.086h2.687v5.47h5.662v-5.47h2.687v13.086h-2.687v-5.269h-5.662v5.269zM59.172 22.261h-2.181l-0.131-1.038c-0.32 0.384-0.716 0.683-1.187 0.899-0.471 0.209-0.989 0.314-1.553 0.314-0.611 0-1.154-0.116-1.631-0.349-0.477-0.238-0.852-0.564-1.126-0.977-0.273-0.419-0.41-0.893-0.41-1.422 0-0.558 0.148-1.050 0.445-1.474s0.704-0.756 1.221-0.994c0.523-0.244 1.116-0.366 1.779-0.366 0.39 0 0.779 0.044 1.169 0.131 0.396 0.087 0.762 0.209 1.099 0.366v-0.227c0-0.349-0.099-0.649-0.296-0.899-0.192-0.256-0.459-0.454-0.803-0.593-0.337-0.14-0.715-0.209-1.134-0.209-0.401 0-0.8 0.064-1.195 0.192-0.39 0.128-0.75 0.32-1.082 0.576l-0.68-1.911c0.587-0.302 1.181-0.529 1.78-0.68 0.605-0.157 1.189-0.236 1.754-0.236 0.849 0 1.585 0.169 2.207 0.506 0.622 0.332 1.102 0.803 1.44 1.413 0.343 0.605 0.514 1.323 0.514 2.155v4.824zM54.67 20.507c0.331 0 0.649-0.073 0.951-0.218s0.547-0.343 0.733-0.593c0.192-0.25 0.294-0.526 0.305-0.829v-0.061c-0.256-0.174-0.541-0.308-0.855-0.401-0.308-0.099-0.622-0.148-0.942-0.148-0.477 0-0.867 0.105-1.169 0.314s-0.453 0.48-0.453 0.811c0 0.215 0.061 0.41 0.183 0.585 0.128 0.169 0.299 0.302 0.515 0.401 0.215 0.093 0.459 0.14 0.733 0.14zM62.924 26.623h-2.513v-13.086h2.198l0.131 1.186c0.372-0.425 0.817-0.756 1.335-0.995 0.523-0.244 1.093-0.366 1.71-0.366 0.803 0 1.515 0.198 2.138 0.593 0.622 0.39 1.114 0.928 1.474 1.614 0.361 0.68 0.541 1.457 0.541 2.329 0 0.867-0.18 1.643-0.541 2.329s-0.852 1.227-1.474 1.623c-0.622 0.39-1.335 0.585-2.138 0.585-0.57 0-1.099-0.102-1.588-0.305-0.483-0.209-0.907-0.497-1.274-0.864v5.357zM65.149 20.185c0.436 0 0.82-0.096 1.152-0.288 0.332-0.198 0.591-0.468 0.777-0.811 0.192-0.349 0.288-0.744 0.288-1.186 0-0.448-0.096-0.843-0.288-1.186-0.186-0.343-0.445-0.614-0.777-0.811s-0.712-0.297-1.143-0.297c-0.407 0-0.773 0.090-1.099 0.271-0.326 0.175-0.59 0.419-0.794 0.733-0.198 0.314-0.311 0.675-0.34 1.082v0.436c0.029 0.395 0.142 0.75 0.34 1.064 0.198 0.308 0.459 0.552 0.785 0.733 0.326 0.174 0.692 0.262 1.099 0.262zM73.324 26.623h-2.513v-13.086h2.198l0.131 1.186c0.372-0.425 0.817-0.756 1.335-0.995 0.523-0.244 1.093-0.366 1.71-0.366 0.802 0 1.515 0.198 2.137 0.593 0.622 0.39 1.114 0.928 1.475 1.614 0.361 0.68 0.541 1.457 0.541 2.329 0 0.867-0.18 1.643-0.541 2.329s-0.852 1.227-1.475 1.623c-0.622 0.39-1.335 0.585-2.137 0.585-0.57 0-1.099-0.102-1.588-0.305-0.483-0.209-0.907-0.497-1.274-0.864v5.357zM75.549 20.185c0.436 0 0.82-0.096 1.152-0.288 0.331-0.198 0.59-0.468 0.776-0.811 0.192-0.349 0.288-0.744 0.288-1.186 0-0.448-0.096-0.843-0.288-1.186-0.186-0.343-0.445-0.614-0.776-0.811s-0.713-0.297-1.143-0.297c-0.407 0-0.774 0.090-1.099 0.271-0.326 0.175-0.59 0.419-0.794 0.733-0.198 0.314-0.311 0.675-0.34 1.082v0.436c0.029 0.395 0.142 0.75 0.34 1.064 0.198 0.308 0.459 0.552 0.785 0.733 0.326 0.174 0.692 0.262 1.099 0.262zM85.495 26.623h-2.669l1.815-4.371-4.406-8.715h2.827l2.766 5.863 2.425-5.863h2.661l-5.418 13.086zM106.181 20.621c-0.611 0.593-1.335 1.058-2.172 1.396s-1.748 0.506-2.731 0.506c-0.995 0-1.911-0.169-2.748-0.506-0.837-0.343-1.567-0.82-2.19-1.431-0.616-0.616-1.096-1.338-1.439-2.164s-0.515-1.727-0.515-2.704c0-0.977 0.172-1.879 0.515-2.705 0.343-0.832 0.823-1.553 1.439-2.164 0.622-0.611 1.352-1.085 2.19-1.422 0.838-0.343 1.754-0.515 2.748-0.515 0.977 0 1.881 0.169 2.713 0.506 0.837 0.337 1.562 0.806 2.172 1.405l-1.876 1.884c-0.367-0.448-0.814-0.8-1.344-1.056-0.524-0.262-1.093-0.393-1.71-0.393-0.587 0-1.131 0.113-1.631 0.34-0.494 0.221-0.928 0.535-1.3 0.942-0.372 0.401-0.66 0.872-0.864 1.413s-0.305 1.125-0.305 1.754c0 0.64 0.102 1.23 0.305 1.771s0.492 1.015 0.864 1.422c0.372 0.401 0.806 0.715 1.3 0.942 0.5 0.221 1.044 0.332 1.631 0.332 0.617 0 1.186-0.128 1.71-0.384 0.523-0.262 0.968-0.617 1.335-1.064l1.902 1.893zM111.181 22.435c-0.896 0-1.698-0.195-2.408-0.585-0.71-0.395-1.268-0.933-1.675-1.614-0.401-0.686-0.602-1.466-0.602-2.338 0-0.867 0.201-1.64 0.602-2.321 0.407-0.686 0.966-1.227 1.675-1.623s1.512-0.593 2.408-0.593c0.896 0 1.692 0.198 2.39 0.593 0.704 0.395 1.256 0.936 1.657 1.623 0.407 0.681 0.611 1.454 0.611 2.321 0 0.872-0.205 1.652-0.611 2.338-0.401 0.68-0.954 1.218-1.657 1.614-0.698 0.39-1.495 0.585-2.39 0.585zM111.172 20.193c0.401 0 0.759-0.099 1.073-0.297 0.32-0.204 0.57-0.477 0.75-0.82 0.186-0.349 0.279-0.747 0.279-1.195 0-0.43-0.093-0.817-0.279-1.16-0.18-0.343-0.43-0.614-0.75-0.811-0.314-0.204-0.672-0.305-1.073-0.305-0.407 0-0.771 0.102-1.091 0.305-0.314 0.198-0.564 0.468-0.75 0.811-0.18 0.343-0.271 0.73-0.271 1.16 0 0.448 0.090 0.846 0.271 1.195 0.186 0.343 0.436 0.617 0.75 0.82 0.32 0.198 0.683 0.297 1.091 0.297zM124.503 22.261h-2.181l-0.131-1.038c-0.32 0.384-0.715 0.683-1.186 0.899-0.471 0.209-0.989 0.314-1.552 0.314-0.611 0-1.155-0.116-1.632-0.349-0.477-0.238-0.853-0.564-1.126-0.977-0.273-0.419-0.41-0.893-0.41-1.422 0-0.558 0.149-1.050 0.446-1.474 0.296-0.425 0.704-0.756 1.221-0.994 0.523-0.244 1.118-0.366 1.781-0.366 0.39 0 0.779 0.044 1.169 0.131 0.395 0.087 0.761 0.209 1.099 0.366v-0.227c0-0.349-0.099-0.649-0.297-0.899-0.192-0.256-0.459-0.454-0.802-0.593-0.338-0.14-0.715-0.209-1.135-0.209-0.401 0-0.799 0.064-1.195 0.192-0.39 0.128-0.75 0.32-1.081 0.576l-0.681-1.911c0.587-0.302 1.182-0.529 1.781-0.68 0.605-0.157 1.189-0.236 1.753-0.236 0.849 0 1.585 0.169 2.207 0.506 0.623 0.332 1.103 0.803 1.44 1.413 0.343 0.605 0.514 1.323 0.514 2.155v4.824zM120.001 20.507c0.331 0 0.649-0.073 0.951-0.218 0.303-0.145 0.547-0.343 0.734-0.593 0.192-0.25 0.294-0.526 0.305-0.829v-0.061c-0.256-0.174-0.541-0.308-0.855-0.401-0.309-0.099-0.623-0.148-0.943-0.148-0.477 0-0.866 0.105-1.169 0.314-0.302 0.209-0.454 0.48-0.454 0.811 0 0.215 0.062 0.41 0.184 0.585 0.128 0.169 0.299 0.302 0.514 0.401 0.215 0.093 0.459 0.14 0.733 0.14zM133.472 20.874c-0.424 0.488-0.945 0.872-1.561 1.152-0.617 0.273-1.294 0.41-2.033 0.41-0.895 0-1.698-0.195-2.408-0.585-0.703-0.395-1.258-0.936-1.666-1.623-0.401-0.686-0.601-1.463-0.601-2.329 0-0.872 0.2-1.649 0.601-2.329 0.408-0.686 0.963-1.224 1.666-1.614 0.71-0.396 1.513-0.593 2.408-0.593 0.733 0 1.408 0.137 2.024 0.41 0.617 0.273 1.137 0.651 1.562 1.134l-1.474 1.544c-0.227-0.262-0.515-0.465-0.864-0.611-0.343-0.151-0.704-0.227-1.082-0.227-0.435 0-0.825 0.099-1.169 0.297-0.343 0.192-0.613 0.46-0.811 0.803-0.198 0.337-0.296 0.727-0.296 1.169 0 0.448 0.098 0.846 0.296 1.195 0.199 0.349 0.469 0.622 0.811 0.82 0.344 0.192 0.734 0.288 1.169 0.288 0.378 0 0.742-0.073 1.090-0.218 0.35-0.151 0.634-0.358 0.856-0.619l1.482 1.527zM134.293 22.261v-13.086h2.504v5.392c0.629-0.803 1.53-1.204 2.705-1.204 1.099 0 1.957 0.34 2.574 1.021 0.616 0.675 0.925 1.62 0.925 2.835v5.043h-2.504v-4.38c0-0.727-0.16-1.288-0.48-1.684s-0.768-0.593-1.343-0.593c-0.587 0-1.047 0.201-1.379 0.602-0.331 0.401-0.497 0.96-0.497 1.675v4.38h-2.504zM145.504 11.452c-0.331 0-0.61-0.116-0.837-0.349-0.227-0.233-0.341-0.515-0.341-0.846s0.113-0.611 0.341-0.838c0.226-0.233 0.505-0.349 0.837-0.349 0.338 0 0.619 0.116 0.847 0.349 0.232 0.227 0.349 0.506 0.349 0.838s-0.117 0.614-0.349 0.846c-0.227 0.233-0.509 0.349-0.847 0.349zM146.761 22.261h-2.504v-8.724h2.504v8.724zM156.907 22.261h-2.504v-4.467c0-0.68-0.162-1.213-0.488-1.597-0.32-0.39-0.759-0.584-1.318-0.584-0.582 0-1.043 0.204-1.387 0.611-0.337 0.401-0.505 0.948-0.505 1.64v4.397h-2.504v-8.724h2.024l0.087 1.396c0.314-0.512 0.725-0.902 1.23-1.169 0.506-0.268 1.103-0.401 1.789-0.401 1.111 0 1.984 0.343 2.618 1.030 0.639 0.68 0.959 1.623 0.959 2.827v5.043zM161.715 22.366c-0.785 0-1.489-0.195-2.111-0.585-0.623-0.395-1.112-0.93-1.466-1.605-0.354-0.681-0.533-1.451-0.533-2.312 0-0.866 0.178-1.637 0.533-2.312s0.843-1.207 1.466-1.596c0.622-0.396 1.328-0.593 2.119-0.593 0.617 0 1.182 0.122 1.693 0.366 0.518 0.239 0.963 0.57 1.335 0.995l0.114-1.186h2.198v8.48c0 0.965-0.211 1.806-0.637 2.521-0.418 0.721-1.013 1.277-1.779 1.666-0.768 0.395-1.666 0.593-2.696 0.593-1.431 0-2.728-0.448-3.891-1.344l1.013-2.041c0.774 0.762 1.675 1.143 2.704 1.143 0.553 0 1.035-0.111 1.449-0.332 0.418-0.221 0.744-0.529 0.976-0.925 0.239-0.396 0.358-0.855 0.358-1.378v-0.715c-0.36 0.361-0.782 0.646-1.264 0.855-0.483 0.204-1.009 0.305-1.579 0.305zM162.361 20.132c0.407 0 0.776-0.087 1.107-0.262 0.331-0.18 0.597-0.428 0.794-0.742 0.198-0.32 0.296-0.68 0.296-1.082v-0.375c0-0.401-0.102-0.759-0.305-1.073-0.198-0.314-0.462-0.558-0.793-0.733-0.326-0.18-0.693-0.27-1.099-0.27-0.419 0-0.794 0.099-1.126 0.297s-0.593 0.468-0.785 0.811c-0.192 0.337-0.288 0.724-0.288 1.16s0.096 0.826 0.288 1.169c0.192 0.343 0.454 0.614 0.785 0.811 0.331 0.192 0.706 0.288 1.126 0.288z"></path>
</symbol>
<symbol id="icon-medal" viewBox="0 0 32 32">
<path fill="none" stroke="#20ad96" style="stroke: var(--color3, #20ad96)" stroke-linejoin="round" stroke-linecap="round" stroke-miterlimit="4" stroke-width="2.9091" d="M16.003 20.005l4.533 7.852 2.131-4.309 4.798 0.309-4.533-7.852"></path>
<path fill="none" stroke="#20ad96" style="stroke: var(--color3, #20ad96)" stroke-linejoin="round" stroke-linecap="round" stroke-miterlimit="4" stroke-width="2.9091" d="M9.070 16.005l-4.533 7.852 4.797-0.309 2.131 4.309 4.533-7.852"></path>
<path fill="none" stroke="#333461" style="stroke: var(--color2, #333461)" stroke-linejoin="round" stroke-linecap="round" stroke-miterlimit="4" stroke-width="2.9091" d="M16 20c4.418 0 8-3.582 8-8s-3.582-8-8-8c-4.418 0-8 3.582-8 8s3.582 8 8 8z"></path>
</symbol>
<symbol id="icon-sight" viewBox="0 0 32 32">
<path fill="none" stroke="#20ad96" style="stroke: var(--color3, #20ad96)" stroke-linejoin="round" stroke-linecap="round" stroke-miterlimit="4" stroke-width="2.0870" d="M24.035 7.966c4.437 4.437 4.437 11.631 0 16.069s-11.631 4.437-16.069 0c-4.437-4.437-4.437-11.632 0-16.069s11.631-4.437 16.069 0z"></path>
<path fill="none" stroke="#333461" style="stroke: var(--color2, #333461)" stroke-linejoin="round" stroke-linecap="round" stroke-miterlimit="4" stroke-width="2.0870" d="M18.295 13.704c1.268 1.268 1.268 3.323 0 4.591s-3.323 1.268-4.591 0c-1.268-1.268-1.268-3.323 0-4.591s3.323-1.268 4.591 0"></path>
<path fill="none" stroke="#20ad96" style="stroke: var(--color3, #20ad96)" stroke-linejoin="round" stroke-linecap="round" stroke-miterlimit="4" stroke-width="2.0870" d="M16 30.609v-6.493"></path>
<path fill="none" stroke="#20ad96" style="stroke: var(--color3, #20ad96)" stroke-linejoin="round" stroke-linecap="round" stroke-miterlimit="4" stroke-width="2.0870" d="M16 1.391v6.493"></path>
<path fill="none" stroke="#20ad96" style="stroke: var(--color3, #20ad96)" stroke-linejoin="round" stroke-linecap="round" stroke-miterlimit="4" stroke-width="2.0870" d="M7.884 16h-6.493"></path>
<path fill="none" stroke="#20ad96" style="stroke: var(--color3, #20ad96)" stroke-linejoin="round" stroke-linecap="round" stroke-miterlimit="4" stroke-width="2.0870" d="M30.609 16h-6.493"></path>
</symbol>
<symbol id="icon-skype" viewBox="0 0 32 32">
<path fill="none" stroke="#3f3a64" style="stroke: var(--color4, #3f3a64)" stroke-linejoin="round" stroke-linecap="round" stroke-miterlimit="4" stroke-width="2.9091" d="M16 4c1.878-0 3.731 0.44 5.408 1.286s3.132 2.074 4.248 3.585c1.116 1.511 1.861 3.263 2.177 5.115s0.191 3.752-0.362 5.547c0.501 1.111 0.653 2.348 0.434 3.547s-0.798 2.303-1.66 3.165c-0.862 0.862-1.966 1.441-3.165 1.66s-2.436 0.068-3.547-0.434c-2.086 0.643-4.307 0.706-6.426 0.18s-4.053-1.619-5.597-3.162-2.637-3.478-3.162-5.597c-0.525-2.118-0.463-4.34 0.18-6.426-0.502-1.111-0.654-2.348-0.435-3.547s0.798-2.303 1.66-3.165c0.862-0.862 1.966-1.441 3.165-1.66s2.437-0.068 3.547 0.434c1.145-0.352 2.336-0.53 3.533-0.528v0z"></path>
<path fill="none" stroke="#20ad96" style="stroke: var(--color3, #20ad96)" stroke-linejoin="round" stroke-linecap="round" stroke-miterlimit="4" stroke-width="2.9091" d="M10.666 19.333c0.667 2.667 3.144 3.333 5.333 3.333 3.873 0 5.333-1.583 5.333-3.333 0-2.004-2.569-3.333-5.333-3.333s-5.333-1.329-5.333-3.333c0-1.751 1.46-3.333 5.333-3.333 2.189 0 4.667 0.667 5.333 3.333"></path>
</symbol>
<symbol id="icon-speech-bubble" viewBox="0 0 32 32">
<path fill="none" stroke="#333461" style="stroke: var(--color2, #333461)" stroke-linejoin="round" stroke-linecap="round" stroke-miterlimit="4" stroke-width="2.9091" d="M23.736 23.056c0 0 0.103-0.073 0.267-0.199 2.457-1.9 3.997-4.653 3.997-7.719 0-5.715-5.373-10.352-11.997-10.352-6.627 0-12.003 4.637-12.003 10.352 0 5.717 5.373 10.195 12 10.195 0.565 0 1.493-0.037 2.784-0.112 1.683 1.093 4.139 1.991 6.288 1.991 0.665 0 0.979-0.547 0.552-1.104-0.648-0.795-1.541-2.068-1.888-3.053v0.001z"></path>
<path fill="none" stroke="#20ad96" style="stroke: var(--color3, #20ad96)" stroke-linejoin="round" stroke-linecap="round" stroke-miterlimit="4" stroke-width="2.1818" d="M10 18c3.333 3.333 8.667 3.333 12 0"></path>
</symbol>
<symbol id="icon-speech-bubbles" viewBox="0 0 32 32">
<path fill="none" stroke="#3f3a64" style="stroke: var(--color4, #3f3a64)" stroke-linejoin="round" stroke-linecap="round" stroke-miterlimit="4" stroke-width="1.2222" d="M27.667 20.222l-4.333-4.333h-10.111c-0.383 0-0.751-0.152-1.021-0.423s-0.423-0.638-0.423-1.021v-8.667c0-0.383 0.152-0.75 0.423-1.021s0.638-0.423 1.021-0.423h13c0.383 0 0.75 0.152 1.021 0.423s0.423 0.638 0.423 1.021v14.444z"></path>
<path fill="none" stroke="#20ad96" style="stroke: var(--color3, #20ad96)" stroke-linejoin="round" stroke-linecap="round" stroke-miterlimit="4" stroke-width="1.2222" d="M17.556 21.667v2.889c0 0.383-0.152 0.75-0.423 1.021s-0.638 0.423-1.021 0.423h-10.111l-4.333 4.333v-14.444c0-0.383 0.152-0.751 0.423-1.021s0.638-0.423 1.021-0.423h2.889"></path>
</symbol>
<symbol id="icon-stars" viewBox="0 0 186 32">
<path fill="#f2f4f7" style="fill: var(--color11, #f2f4f7)" d="M15.261 2.576c0.273-0.657 1.204-0.657 1.477 0l3.306 7.948c0.115 0.277 0.376 0.466 0.675 0.49l8.58 0.688c0.709 0.057 0.997 0.942 0.456 1.405l-6.537 5.6c-0.228 0.195-0.327 0.501-0.258 0.793l1.997 8.373c0.165 0.692-0.588 1.239-1.195 0.868l-7.346-4.487c-0.256-0.156-0.578-0.156-0.834 0l-7.346 4.487c-0.607 0.371-1.36-0.176-1.195-0.868l1.997-8.373c0.070-0.292-0.030-0.598-0.258-0.793l-6.537-5.6c-0.54-0.463-0.253-1.348 0.457-1.405l8.581-0.688c0.299-0.024 0.56-0.213 0.675-0.49l3.306-7.948z"></path>
<path fill="#fec84b" style="fill: var(--color12, #fec84b)" d="M15.261 2.576c0.273-0.657 1.204-0.657 1.477 0l3.306 7.948c0.115 0.277 0.376 0.466 0.675 0.49l8.58 0.688c0.709 0.057 0.997 0.942 0.456 1.405l-6.537 5.6c-0.228 0.195-0.327 0.501-0.258 0.793l1.997 8.373c0.165 0.692-0.588 1.239-1.195 0.868l-7.346-4.487c-0.256-0.156-0.578-0.156-0.834 0l-7.346 4.487c-0.607 0.371-1.36-0.176-1.195-0.868l1.997-8.373c0.070-0.292-0.030-0.598-0.258-0.793l-6.537-5.6c-0.54-0.463-0.253-1.348 0.457-1.405l8.581-0.688c0.299-0.024 0.56-0.213 0.675-0.49l3.306-7.948z"></path>
<path fill="#f2f4f7" style="fill: var(--color11, #f2f4f7)" d="M53.661 2.576c0.273-0.657 1.204-0.657 1.477 0l3.306 7.948c0.115 0.277 0.376 0.466 0.675 0.49l8.58 0.688c0.709 0.057 0.997 0.942 0.456 1.405l-6.537 5.6c-0.228 0.195-0.327 0.501-0.258 0.793l1.997 8.373c0.165 0.692-0.588 1.239-1.195 0.868l-7.346-4.487c-0.256-0.156-0.578-0.156-0.834 0l-7.346 4.487c-0.607 0.371-1.36-0.176-1.195-0.868l1.997-8.373c0.070-0.292-0.030-0.598-0.258-0.793l-6.537-5.6c-0.54-0.463-0.253-1.348 0.456-1.405l8.58-0.688c0.299-0.024 0.56-0.213 0.675-0.49l3.306-7.948z"></path>
<path fill="#fec84b" style="fill: var(--color12, #fec84b)" d="M53.661 2.576c0.273-0.657 1.204-0.657 1.477 0l3.306 7.948c0.115 0.277 0.376 0.466 0.675 0.49l8.58 0.688c0.709 0.057 0.997 0.942 0.456 1.405l-6.537 5.6c-0.228 0.195-0.327 0.501-0.258 0.793l1.997 8.373c0.165 0.692-0.588 1.239-1.195 0.868l-7.346-4.487c-0.256-0.156-0.578-0.156-0.834 0l-7.346 4.487c-0.607 0.371-1.36-0.176-1.195-0.868l1.997-8.373c0.070-0.292-0.030-0.598-0.258-0.793l-6.537-5.6c-0.54-0.463-0.253-1.348 0.456-1.405l8.58-0.688c0.299-0.024 0.56-0.213 0.675-0.49l3.306-7.948z"></path>
<path fill="#f2f4f7" style="fill: var(--color11, #f2f4f7)" d="M92.061 2.576c0.273-0.657 1.204-0.657 1.477 0l3.306 7.948c0.115 0.277 0.376 0.466 0.675 0.49l8.58 0.688c0.709 0.057 0.997 0.942 0.456 1.405l-6.537 5.6c-0.228 0.195-0.327 0.501-0.258 0.793l1.997 8.373c0.165 0.692-0.588 1.239-1.195 0.868l-7.346-4.487c-0.256-0.156-0.578-0.156-0.834 0l-7.346 4.487c-0.607 0.371-1.36-0.176-1.195-0.868l1.997-8.373c0.070-0.292-0.030-0.598-0.258-0.793l-6.537-5.6c-0.54-0.463-0.253-1.348 0.456-1.405l8.58-0.688c0.299-0.024 0.56-0.213 0.675-0.49l3.306-7.948z"></path>
<path fill="#fec84b" style="fill: var(--color12, #fec84b)" d="M92.061 2.576c0.273-0.657 1.204-0.657 1.477 0l3.306 7.948c0.115 0.277 0.376 0.466 0.675 0.49l8.58 0.688c0.709 0.057 0.997 0.942 0.456 1.405l-6.537 5.6c-0.228 0.195-0.327 0.501-0.258 0.793l1.997 8.373c0.165 0.692-0.588 1.239-1.195 0.868l-7.346-4.487c-0.256-0.156-0.578-0.156-0.834 0l-7.346 4.487c-0.607 0.371-1.36-0.176-1.195-0.868l1.997-8.373c0.070-0.292-0.030-0.598-0.258-0.793l-6.537-5.6c-0.54-0.463-0.253-1.348 0.456-1.405l8.58-0.688c0.299-0.024 0.56-0.213 0.675-0.49l3.306-7.948z"></path>
<path fill="#f2f4f7" style="fill: var(--color11, #f2f4f7)" d="M130.461 2.576c0.273-0.657 1.204-0.657 1.477 0l3.306 7.948c0.115 0.277 0.376 0.466 0.675 0.49l8.58 0.688c0.709 0.057 0.997 0.942 0.456 1.405l-6.537 5.6c-0.228 0.195-0.327 0.501-0.258 0.793l1.997 8.373c0.165 0.692-0.588 1.239-1.195 0.868l-7.346-4.487c-0.256-0.156-0.578-0.156-0.834 0l-7.346 4.487c-0.607 0.371-1.36-0.176-1.195-0.868l1.997-8.373c0.070-0.292-0.030-0.598-0.258-0.793l-6.537-5.6c-0.54-0.463-0.253-1.348 0.456-1.405l8.58-0.688c0.299-0.024 0.56-0.213 0.675-0.49l3.306-7.948z"></path>
<path fill="#fec84b" style="fill: var(--color12, #fec84b)" d="M130.461 2.576c0.273-0.657 1.204-0.657 1.477 0l3.306 7.948c0.115 0.277 0.376 0.466 0.675 0.49l8.58 0.688c0.709 0.057 0.997 0.942 0.456 1.405l-6.537 5.6c-0.228 0.195-0.327 0.501-0.258 0.793l1.997 8.373c0.165 0.692-0.588 1.239-1.195 0.868l-7.346-4.487c-0.256-0.156-0.578-0.156-0.834 0l-7.346 4.487c-0.607 0.371-1.36-0.176-1.195-0.868l1.997-8.373c0.070-0.292-0.030-0.598-0.258-0.793l-6.537-5.6c-0.54-0.463-0.253-1.348 0.456-1.405l8.58-0.688c0.299-0.024 0.56-0.213 0.675-0.49l3.306-7.948z"></path>
<path fill="#f2f4f7" style="fill: var(--color11, #f2f4f7)" d="M168.861 2.576c0.274-0.657 1.205-0.657 1.478 0l3.306 7.948c0.115 0.277 0.376 0.466 0.674 0.49l8.581 0.688c0.71 0.057 0.997 0.942 0.458 1.405l-6.538 5.6c-0.229 0.195-0.328 0.501-0.258 0.793l1.997 8.373c0.165 0.692-0.589 1.239-1.195 0.868l-7.346-4.487c-0.256-0.156-0.579-0.156-0.835 0l-7.346 4.487c-0.606 0.371-1.36-0.176-1.195-0.868l1.997-8.373c0.070-0.292-0.029-0.598-0.258-0.793l-6.537-5.6c-0.54-0.463-0.253-1.348 0.456-1.405l8.581-0.688c0.298-0.024 0.558-0.213 0.674-0.49l3.306-7.948z"></path>
<path fill="#fec84b" style="fill: var(--color12, #fec84b)" d="M168.861 2.576c0.274-0.657 1.205-0.657 1.478 0l3.306 7.948c0.115 0.277 0.376 0.466 0.674 0.49l8.581 0.688c0.71 0.057 0.997 0.942 0.458 1.405l-6.538 5.6c-0.229 0.195-0.328 0.501-0.258 0.793l1.997 8.373c0.165 0.692-0.589 1.239-1.195 0.868l-7.346-4.487c-0.256-0.156-0.579-0.156-0.835 0l-7.346 4.487c-0.606 0.371-1.36-0.176-1.195-0.868l1.997-8.373c0.070-0.292-0.029-0.598-0.258-0.793l-6.537-5.6c-0.54-0.463-0.253-1.348 0.456-1.405l8.581-0.688c0.298-0.024 0.558-0.213 0.674-0.49l3.306-7.948z"></path>
</symbol>
<symbol id="icon-waves" viewBox="0 0 190 32">
<path fill="#20ad96" style="fill: var(--color3, #20ad96)" d="M49.432 8.137l22.748 23.863 22.923-23.863 22.835 23.863 22.748-23.863 22.835 23.863 26.597-27.794-4.112-4.206-22.485 23.497-22.485-23.497-0.35 0.366-0.263-0.366-22.485 23.497-22.573-23.497-0.263 0.366-0.35-0.366-22.573 23.497-22.485-23.497-0.263 0.366-0.35-0.366-22.485 23.497-22.485-23.497-4.112 4.206 26.597 27.794 22.835-23.863z"></path>
</symbol>
<symbol id="icon-wreath" viewBox="0 0 38 32">
<path fill="#1c413a" style="fill: var(--color13, #1c413a)" d="M17.199 26.346l0.141 0.46h0.456l-0.369 0.284 0.142 0.46-0.369-0.284-0.37 0.284 0.142-0.46-0.37-0.284h0.456l0.141-0.46zM18.623 26.805h-0.455l0.368 0.284-0.141 0.46 0.37-0.284 0.368 0.284-0.141-0.46 0.369-0.284h-0.454l-0.141-0.46-0.144 0.46zM20.189 26.805h-0.453l0.369 0.284-0.141 0.46 0.368-0.284 0.37 0.284-0.139-0.46 0.368-0.284h-0.462l-0.141-0.46-0.141 0.46z"></path>
<path fill="#20ad96" style="fill: var(--color3, #20ad96)" d="M14.346 6.142c0 0 0.518-1.17 1.683-1.066s1.512-0.518 1.512-0.518c0 0 0.277 1.804-1.1 1.995-1.15 0.161-1.545-0.617-2.095-0.411zM14.024 5.824c0.94-0.387 0.605-2.051 0.077-2.335 0.026 0.311-0.414 0.981-1.288 1.496s-0.566 1.867-0.566 1.867c0.258-0.421 0.837-0.641 1.778-1.028zM11.655 6.856c0.791-0.638 0.183-2.158-0.507-2.326 0.112 0.289-0.118 1.058-0.812 1.801s-0.013 1.955-0.013 1.955c0.126-0.481 0.54-0.791 1.333-1.43zM9.672 8.286c0.634-0.796-0.207-2.247-0.932-2.247 0.173 0.258 0.115 1.058-0.4 1.935s0.414 1.91 0.414 1.91c0.018-0.497 0.284-0.803 0.918-1.598zM14.063 8.468c0.621-0.465 1.739-0.168 1.739-0.168s-0.064-1.38-1.391-1.625c-1.327-0.245-2.088 0.518-2.088 0.518 0.606-0.075 1.366 0.487 1.74 1.273v0.001zM12.411 9.446c0.487-0.601 1.646-0.589 1.646-0.589s-0.4-1.322-1.746-1.235c-1.346 0.087-1.898 1.012-1.898 1.012 0.569-0.224 1.445 0.144 1.999 0.812zM10.809 10.748c0.287-0.719 1.398-1.049 1.398-1.049s-0.772-1.141-2.033-0.663c-1.261 0.478-1.511 1.533-1.511 1.533 0.474-0.383 1.418-0.293 2.146 0.179zM8.024 10.348c0.525-0.872-0.36-2.198-1.223-2.095 0.207 0.233 0.253 1.037-0.144 1.97s0.66 1.844 0.66 1.844c-0.048-0.489 0.183-0.843 0.707-1.715v-0.004zM6.84 12.794c0.323-0.965-0.828-2.067-1.649-1.778 0.252 0.182 0.471 0.953 0.288 1.954s1.041 1.657 1.041 1.657c-0.152-0.473-0.003-0.864 0.32-1.828v-0.004zM6.302 15.456c0.131-1.010-1.207-1.866-1.957-1.429 0.281 0.131 0.644 0.845 0.656 1.866s1.338 1.422 1.338 1.422c-0.24-0.439-0.169-0.85-0.036-1.859zM6.39 18.331c-0.183-1.002-1.721-1.409-2.3-0.76 0.311 0.038 0.871 0.607 1.193 1.572s1.709 0.945 1.709 0.945c-0.362-0.341-0.419-0.755-0.602-1.756zM7.305 21.168c-0.444-0.917-2.035-0.896-2.419-0.115 0.311-0.046 1.002 0.351 1.57 1.194s1.897 0.45 1.897 0.45c-0.438-0.23-0.604-0.614-1.048-1.528zM8.933 23.674c-0.661-0.774-2.195-0.354-2.371 0.499 0.286-0.121 1.058 0.087 1.822 0.76s1.95-0.043 1.95-0.043c-0.483-0.113-0.737-0.442-1.4-1.216zM10.884 25.625c-0.887-0.499-2.183 0.426-2.055 1.287 0.227-0.213 1.023-0.284 1.968 0.084s1.816-0.713 1.816-0.713c-0.489 0.061-0.843-0.159-1.729-0.657zM13.438 26.863c-0.964-0.324-2.064 0.83-1.777 1.649 0.182-0.251 0.952-0.471 1.951-0.287s1.651-1.037 1.651-1.037c-0.472 0.152-0.862-0.001-1.825-0.325zM9.456 12.511c0.013-0.774 0.932-1.478 0.932-1.478s-1.128-0.796-2.135 0.104c-1.008 0.9-0.874 1.97-0.874 1.97 0.314-0.535 1.227-0.788 2.077-0.596zM8.761 14.716c-0.114-0.765 0.678-1.613 0.678-1.613s-1.243-0.598-2.089 0.454c-0.846 1.053-0.537 2.084-0.537 2.084 0.218-0.574 1.079-0.975 1.948-0.93v0.004zM8.456 16.878c-0.398-0.663 0.009-1.749 0.009-1.749s-1.377-0.075-1.755 1.223c-0.378 1.297 0.302 2.131 0.302 2.131-0.017-0.611 0.624-1.311 1.444-1.604zM8.897 19.055c-0.621-0.467-0.643-1.627-0.643-1.627s-1.307 0.443-1.174 1.788c0.133 1.345 1.074 1.866 1.074 1.866-0.242-0.558 0.095-1.447 0.744-2.024v-0.003zM10.010 20.971c-0.687-0.357-0.906-1.496-0.906-1.496s-1.215 0.656-0.858 1.96c0.356 1.303 1.371 1.659 1.371 1.659-0.331-0.512-0.15-1.444 0.393-2.123zM11.424 22.758c-0.659-0.207-1.036-1.173-1.036-1.173s-0.964 0.767-0.446 1.857c0.518 1.090 1.465 1.244 1.465 1.244-0.362-0.399-0.354-1.246 0.019-1.929h-0.002zM13.003 24.003c-0.675-0.036-1.261-0.864-1.261-0.864s-0.73 0.961 0.024 1.866c0.754 0.905 1.69 0.83 1.69 0.83-0.443-0.29-0.641-1.098-0.451-1.835l-0.002 0.003zM14.804 24.832c-0.647 0.083-1.346-0.602-1.346-0.602s-0.527 1.037 0.347 1.774c0.874 0.737 1.749 0.491 1.749 0.491-0.477-0.193-0.8-0.927-0.748-1.661l-0.002-0.002z"></path>
<path fill="#20ad96" style="fill: var(--color3, #20ad96)" d="M21.091 6.555c-1.376-0.191-1.098-1.995-1.098-1.995s0.343 0.622 1.511 0.519c1.168-0.104 1.683 1.066 1.683 1.066-0.543-0.208-0.947 0.569-2.096 0.411zM25.287 6.855c0 0 0.311-1.355-0.567-1.867s-1.311-1.189-1.286-1.5c-0.528 0.284-0.863 1.949 0.078 2.336s1.52 0.606 1.778 1.031h-0.002zM27.209 8.286c0 0 0.68-1.211-0.013-1.955s-0.924-1.512-0.811-1.802c-0.691 0.168-1.299 1.688-0.507 2.326s1.207 0.949 1.334 1.43h-0.002zM28.779 9.884c0 0 0.932-1.037 0.414-1.91s-0.573-1.677-0.4-1.935c-0.725 0-1.565 1.452-0.932 2.248s0.9 1.101 0.919 1.598h-0.002zM25.209 7.187c0 0-0.76-0.761-2.086-0.519s-1.392 1.625-1.392 1.625 1.12-0.29 1.742 0.173c0.373-0.786 1.133-1.348 1.738-1.276l-0.002-0.004zM27.119 8.63c0 0-0.551-0.925-1.897-1.012s-1.747 1.235-1.747 1.235c0 0 1.16-0.012 1.645 0.589 0.557-0.664 1.432-1.032 2-0.808l-0.002-0.004zM28.871 10.565c0 0-0.254-1.046-1.514-1.529s-2.031 0.663-2.031 0.663c0 0 1.111 0.331 1.398 1.050 0.729-0.473 1.673-0.562 2.149-0.179l-0.002-0.004zM30.217 12.064c0 0 1.054-0.9 0.658-1.834s-0.348-1.737-0.143-1.971c-0.864-0.104-1.748 1.223-1.224 2.095s0.755 1.224 0.708 1.713v-0.004zM31.014 14.624c0 0 1.225-0.651 1.042-1.653s0.036-1.771 0.287-1.954c-0.82-0.288-1.967 0.813-1.647 1.779s0.472 1.36 0.319 1.833v-0.004zM31.196 17.309c0 0 1.326-0.404 1.338-1.422s0.374-1.732 0.655-1.867c-0.75-0.441-2.090 0.415-1.957 1.429s0.204 1.429-0.036 1.864v-0.004zM30.542 20.085c0 0 1.386 0.021 1.708-0.945s0.885-1.534 1.193-1.572c-0.579-0.649-2.117-0.242-2.3 0.76s-0.24 1.42-0.602 1.761v-0.004zM29.18 22.695c0 0 1.334 0.396 1.898-0.446s1.263-1.239 1.571-1.194c-0.384-0.781-1.975-0.802-2.42 0.115s-0.61 1.299-1.049 1.529v-0.004zM27.2 24.894c0 0 1.188 0.716 1.951 0.042s1.534-0.882 1.821-0.76c-0.176-0.853-1.71-1.274-2.371-0.499s-0.916 1.104-1.401 1.217zM24.922 26.287c0 0 0.869 1.081 1.816 0.714s1.745-0.297 1.967-0.084c0.128-0.861-1.168-1.786-2.054-1.287s-1.24 0.719-1.729 0.658zM22.276 27.187c0 0 0.651 1.225 1.65 1.037s1.769 0.036 1.952 0.287c0.287-0.821-0.813-1.971-1.777-1.649s-1.353 0.481-1.83 0.325h0.004zM30.156 13.099c0 0 0.134-1.068-0.874-1.971s-2.134-0.104-2.134-0.104 0.922 0.704 0.932 1.478c0.848-0.183 1.762 0.070 2.072 0.596h0.004zM30.726 15.639c0 0 0.311-1.031-0.537-2.085s-2.088-0.454-2.088-0.454 0.792 0.847 0.677 1.613c0.866-0.045 1.725 0.356 1.943 0.926h0.005zM30.526 18.484c0 0 0.679-0.83 0.301-2.131s-1.76-1.223-1.76-1.223 0.408 1.087 0.009 1.75c0.816 0.294 1.461 0.994 1.445 1.604h0.004zM29.387 21.088c0 0 0.941-0.519 1.073-1.867s-1.174-1.788-1.174-1.788-0.026 1.161-0.642 1.627c0.645 0.578 0.98 1.466 0.737 2.028h0.006zM27.923 23.096c0 0 1.016-0.355 1.37-1.66s-0.857-1.96-0.857-1.96-0.221 1.141-0.906 1.497c0.539 0.678 0.72 1.611 0.387 2.123h0.006zM26.127 24.689c0 0 0.948-0.154 1.465-1.245s-0.446-1.858-0.446-1.858-0.372 0.968-1.035 1.173c0.372 0.684 0.383 1.531 0.010 1.929h0.006zM24.084 25.83c0 0 0.932 0.084 1.69-0.83s0.024-1.867 0.024-1.867-0.586 0.83-1.261 0.864c0.179 0.743-0.009 1.551-0.459 1.838l0.006-0.005zM21.987 26.496c0 0 0.876 0.243 1.75-0.492s0.34-1.773 0.34-1.773c0 0-0.7 0.686-1.346 0.603 0.051 0.737-0.272 1.472-0.75 1.667l0.006-0.005z"></path>
<path fill="#1c413a" style="fill: var(--color13, #1c413a)" d="M18.707 8.662l0.212 0.597h0.689l-0.557 0.369 0.212 0.597-0.557-0.369-0.558 0.369 0.214-0.597-0.558-0.369h0.689l0.214-0.597z"></path>
</symbol>
</defs>
</svg>
